<?xml version="1.0" encoding="utf-8"?>
<!-- Generator: Adobe Illustrator 16.0.3, SVG Export Plug-In . SVG Version: 6.00 Build 0)  -->
<!DOCTYPE svg PUBLIC "-//W3C//DTD SVG 1.1//EN" "http://www.w3.org/Graphics/SVG/1.1/DTD/svg11.dtd">
<svg version="1.1" id="Layer_1" xmlns="http://www.w3.org/2000/svg" xmlns:xlink="http://www.w3.org/1999/xlink" x="0px" y="0px"
	 width="37.109px" height="38.093px" viewBox="0 0 37.109 38.093" enable-background="new 0 0 37.109 38.093" xml:space="preserve">
<g>
	<g>
		<path fill="#FFFFFF" d="M3.688,10.344c0,0-2.75,0-2.75,2.75V30.28c0,0,0,2.75,2.75,2.75h12.031c0,0,2.75,0,2.75-2.75V13.094
			c0,0,0-2.75-2.75-2.75H3.688z"/>
	</g>
	<g>
		<path fill="#494949" d="M15.718,33.968H3.688C0.982,33.968,0,31.763,0,30.28V13.094c0-2.706,2.205-3.688,3.688-3.688h12.031
			c2.706,0,3.688,2.205,3.688,3.688V30.28C19.406,32.985,17.201,33.968,15.718,33.968z M3.688,11.281
			c-0.419,0.007-1.813,0.158-1.813,1.813V30.28c0.007,0.42,0.158,1.813,1.813,1.813h12.026c0.43-0.008,1.817-0.161,1.817-1.813
			V13.094c-0.007-0.419-0.158-1.813-1.813-1.813H3.688z"/>
	</g>
	<g>
		<path fill="#FFFFFF" d="M7.641,14.469c0,0-2.75,0-2.75,2.75v17.187c0,0,0,2.75,2.75,2.75h12.031c0,0,2.75,0,2.75-2.75V17.219
			c0,0,0-2.75-2.75-2.75H7.641z"/>
	</g>
	<g>
		<path fill="#494949" d="M19.672,38.093H7.641c-2.706,0-3.688-2.205-3.688-3.688V17.219c0-2.706,2.205-3.688,3.688-3.688h12.031
			c2.705,0,3.688,2.205,3.688,3.688v17.187C23.359,37.11,21.154,38.093,19.672,38.093z M7.641,15.406
			c-0.419,0.007-1.813,0.158-1.813,1.813v17.187c0.007,0.42,0.158,1.813,1.813,1.813h12.026c0.43-0.008,1.817-0.161,1.817-1.813
			V17.219c-0.007-0.419-0.158-1.813-1.813-1.813H7.641z"/>
	</g>
	<g>
		<path fill="#494949" d="M17.781,21.563h-8.25c-0.518,0-0.938-0.42-0.938-0.938s0.42-0.938,0.938-0.938h8.25
			c0.518,0,0.938,0.42,0.938,0.938S18.299,21.563,17.781,21.563z"/>
	</g>
	<g>
		<path fill="#494949" d="M17.781,26.75h-8.25c-0.518,0-0.938-0.42-0.938-0.938s0.42-0.938,0.938-0.938h8.25
			c0.518,0,0.938,0.42,0.938,0.938S18.299,26.75,17.781,26.75z"/>
	</g>
	<g>
		<path fill="#494949" d="M17.781,31.875h-8.25c-0.518,0-0.938-0.42-0.938-0.938S9.014,30,9.531,30h8.25
			c0.518,0,0.938,0.42,0.938,0.938S18.299,31.875,17.781,31.875z"/>
	</g>
	<g>
		<path fill="#494949" d="M28.609,21.594h-5.5c-0.518,0-0.938-0.42-0.938-0.938s0.42-0.938,0.938-0.938h5.5
			c0.518,0,0.938,0.42,0.938,0.938S29.127,21.594,28.609,21.594z"/>
	</g>
	<g>
		<path fill="#FFFFFF" d="M31.984,17.563c0,0-2,0-2,2v2.187c0,0,0,2,2,2h2.188c0,0,2,0,2-2v-2.187c0,0,0-2-2-2H31.984z"/>
	</g>
	<g>
		<path fill="#494949" d="M34.172,24.687h-2.188c-2.155,0-2.938-1.757-2.938-2.938v-2.187c0-2.155,1.757-2.938,2.938-2.938h2.188
			c2.155,0,2.938,1.757,2.938,2.938v2.187C37.109,23.904,35.353,24.687,34.172,24.687z M31.984,18.5
			c-0.391,0.009-1.063,0.16-1.063,1.063v2.187c0.01,0.391,0.16,1.063,1.063,1.063h2.181c0.4-0.01,1.069-0.162,1.069-1.063v-2.187
			c-0.01-0.39-0.16-1.063-1.063-1.063H31.984z"/>
	</g>
	<g>
		<path fill="#494949" d="M28.609,32.563h-5.5c-0.518,0-0.938-0.42-0.938-0.938s0.42-0.938,0.938-0.938h5.5
			c0.518,0,0.938,0.42,0.938,0.938S29.127,32.563,28.609,32.563z"/>
	</g>
	<g>
		<path fill="#FFFFFF" d="M31.984,28.531c0,0-2,0-2,2v2.187c0,0,0,2,2,2h2.188c0,0,2,0,2-2v-2.187c0,0,0-2-2-2H31.984z"/>
	</g>
	<g>
		<path fill="#494949" d="M34.172,35.655h-2.188c-2.155,0-2.938-1.757-2.938-2.938v-2.187c0-2.155,1.757-2.938,2.938-2.938h2.188
			c2.155,0,2.938,1.757,2.938,2.938v2.187C37.109,34.873,35.353,35.655,34.172,35.655z M31.984,29.469
			c-0.391,0.01-1.063,0.16-1.063,1.063v2.187c0.01,0.391,0.16,1.063,1.063,1.063h2.181c0.4-0.01,1.069-0.162,1.069-1.063v-2.187
			c-0.01-0.391-0.16-1.063-1.063-1.063H31.984z"/>
	</g>
	<g>
		<path fill="#FFFFFF" d="M9.016,6.438v-2.75c0,0,0-2.75,2.75-2.75h17.875c0,0,2.75,0,2.75,2.75v6.219"/>
	</g>
	<g>
		<path fill="#494949" d="M32.391,10.844c-0.518,0-0.938-0.42-0.938-0.938V3.688c0-1.655-1.393-1.806-1.819-1.813H11.766
			c-1.655,0-1.806,1.393-1.813,1.82v2.743c0,0.518-0.42,0.938-0.938,0.938s-0.938-0.42-0.938-0.938v-2.75
			C8.078,2.205,9.06,0,11.766,0h17.875c1.482,0,3.688,0.982,3.688,3.688v6.219C33.328,10.424,32.908,10.844,32.391,10.844z"/>
	</g>
	<g>
		<path fill="#494949" d="M32,11.156c-0.24,0-0.479-0.091-0.663-0.274c-0.366-0.366-0.366-0.96,0-1.326l3.406-3.406
			c0.367-0.366,0.959-0.366,1.326,0c0.366,0.366,0.366,0.96,0,1.326l-3.406,3.406C32.479,11.065,32.24,11.156,32,11.156z"/>
	</g>
	<g>
		<path fill="#494949" d="M32,11.125c-0.238,0-0.478-0.09-0.66-0.271l-3.406-3.375c-0.367-0.364-0.37-0.958-0.006-1.326
			c0.365-0.367,0.959-0.371,1.326-0.006l3.406,3.375c0.367,0.364,0.37,0.958,0.006,1.326C32.482,11.032,32.241,11.125,32,11.125z"/>
	</g>
</g>
</svg>
